# xmcd
#
# Track frame offsets:
#   150
#   72446
#   164082
#   181245
#   253541
#   266803
#   279380
#   291312
#   302915
#
# Disc length: 4212 seconds
#
# Revision: 0
# Processed by: cddbd v1.5.2PL0 Copyright (c) Steve Scherf et al.
# Submitted via: uFREEDB ActiveX Control 1.5
#
DISCID=8e107209
DTITLE=16 - 016
DYEAR=1900
DGENRE=Alternative
TTITLE0=161
TTITLE1=162
TTITLE2=163
TTITLE3=164
TTITLE4=165
TTITLE5=166
TTITLE6=167
TTITLE7=168
TTITLE8=169
EXTD=
EXTT0=
EXTT1=
EXTT2=
EXTT3=
EXTT4=
EXTT5=
EXTT6=
EXTT7=
EXTT8=
PLAYORDER=
